<?xml version="1.0" encoding="UTF-8"?>
<svg width="20px" height="20px" viewBox="0 0 20 20" version="1.1" xmlns="http://www.w3.org/2000/svg" xmlns:xlink="http://www.w3.org/1999/xlink">
    <!-- Generator: Sketch 54.1 (76490) - https://sketchapp.com -->
    <title>globe-2-outline</title>
    <desc>Created with Sketch.</desc>
    <g id="Page-1" stroke="none" stroke-width="1" fill="none" fill-rule="evenodd">
        <g id="Artboard" transform="translate(-518.000000, -690.000000)" fill="#000000" fill-rule="nonzero">
            <g id="Group" transform="translate(114.000000, 646.000000)">
                <g id="globe-2-outline" transform="translate(402.000000, 42.000000)">
                    <rect id="Rectangle" opacity="0" x="0" y="0" width="24" height="24"></rect>
                    <rect id="Rectangle" opacity="0" x="0" y="0" width="24" height="24"></rect>
                    <path d="M12,2 C6.4771525,2 2,6.4771525 2,12 C2,17.5228475 6.4771525,22 12,22 C17.5228475,22 22,17.5228475 22,12 C22,9.3478351 20.9464316,6.80429597 19.0710678,4.92893219 C17.195704,3.0535684 14.6521649,2 12,2 Z M12,4 C12.6025753,4.00393625 13.2028757,4.07436256 13.79,4.21 C13.6161712,4.60239276 13.3482625,4.94586551 13.01,5.21 C12.79,5.38 12.55,5.52 12.31,5.67 C11.550223,6.04407755 10.9096281,6.62234429 10.46,7.34 C9.96743079,8.36656746 9.75360773,9.50465796 9.84,10.64 C9.84,12 9.84,12.8 8.89,13.51 C7.52,14.58 5.43,13.98 4.13,13.44 C4.04501251,12.9646751 4.00151537,12.4828606 4,12 C4,7.581722 7.581722,4 12,4 Z M5,15.8 C5.65343082,15.9698583 6.32491957,16.0605092 7,16.07 C8.1295968,16.1010714 9.23640801,15.7485837 10.14,15.07 C11.85,13.73 11.85,12.01 11.85,10.63 C11.7741559,9.83128265 11.9014311,9.0263529 12.22,8.29 C12.5094104,7.89591749 12.8950188,7.58261068 13.34,7.38 C13.6579401,7.19420355 13.9650989,6.99054391 14.26,6.77 C14.8814529,6.27912478 15.364024,5.63454776 15.66,4.9 C17.0669512,5.61985947 18.2291655,6.74031755 19,8.12 C17.57,8.32 15.54,8.79 15.14,10.65 C15.0497149,11.0944029 15.0028279,11.5465275 15,12 C15.0323718,12.5068526 14.9324376,13.0134159 14.71,13.47 L14.61,13.64 C13.96,14.72 13.23,15.95 14.22,17.64 C14.34,17.85 14.47,18.05 14.6,18.25 C14.8661484,18.5574458 15.0456305,18.9302163 15.12,19.33 C14.1364912,19.7635126 13.0747793,19.9915084 12,20 C9.0741908,19.9853927 6.38974022,18.3747223 5,15.8 Z M16.93,18.32 C16.7570163,17.9206897 16.5460459,17.5389338 16.3,17.18 C16.19,17.02 16.08,16.86 15.98,16.69 C15.59,16.01 15.73,15.69 16.36,14.69 L16.46,14.52 C16.8519064,13.7720728 17.0382519,12.9335179 17,12.09 C16.9989943,11.7546 17.0291235,11.4198306 17.09,11.09 C17.25,10.36 18.8,10.16 19.76,10.09 C20.5531631,13.1737916 19.4273468,16.4331479 16.9,18.37 L16.93,18.32 Z" id="Shape"></path>
                </g>
            </g>
        </g>
    </g>
</svg>