<?xml version="1.0" encoding="UTF-8"?>
<svg width="21px" height="20px" viewBox="0 0 21 20" version="1.1" xmlns="http://www.w3.org/2000/svg" xmlns:xlink="http://www.w3.org/1999/xlink">
    <!-- Generator: Sketch 54.1 (76490) - https://sketchapp.com -->
    <title>phone-outline (1)</title>
    <desc>Created with Sketch.</desc>
    <g id="Page-1" stroke="none" stroke-width="1" fill="none" fill-rule="evenodd">
        <g id="Artboard" transform="translate(-477.000000, -690.000000)" fill="#000000" fill-rule="nonzero">
            <g id="Group" transform="translate(114.000000, 646.000000)">
                <g id="phone-outline-(1)" transform="translate(361.000000, 42.000000)">
                    <rect id="Rectangle" opacity="0" x="0" y="0" width="24" height="24"></rect>
                    <path d="M17.4,22 C8.89938297,21.9889817 2.01101831,15.100617 2,6.6 C2,4.05949015 4.05949015,2 6.6,2 C6.8583409,1.9980322 7.11624905,2.02147839 7.37,2.07 C7.6153108,2.10630048 7.85646671,2.16658946 8.09,2.25 C8.42419158,2.36725714 8.6714326,2.65253524 8.74,3 L10.11,9 C10.1850319,9.33091691 10.0871394,9.67730542 9.85,9.92 C9.72,10.06 9.71,10.07 8.48,10.71 C9.46499447,12.8708564 11.1931986,14.6061579 13.35,15.6 C14,14.36 14.01,14.35 14.15,14.22 C14.3926946,13.9828606 14.7390831,13.8849681 15.07,13.96 L21.07,15.33 C21.4060516,15.4079701 21.6781843,15.6536455 21.79,15.98 C21.8743999,16.2173579 21.9379733,16.4616135 21.98,16.71 C22.0202449,16.9613268 22.0403089,17.2154716 22.04,17.47 C22.0016122,19.9987861 19.9289793,22.0222833 17.4,22 L17.4,22 Z M6.6,4 C5.16633673,4.00548252 4.00548252,5.16633673 4,6.6 C4.00551497,13.9983301 10.0016699,19.994485 17.4,20 C18.8336633,19.9945175 19.9945175,18.8336633 20,17.4 L20,17.07 L15.36,16 L15.07,16.55 C14.62,17.42 14.29,18.05 13.45,17.71 C10.0941163,16.5088193 7.45717777,13.8608629 6.27,10.5 C5.91,9.72 6.59,9.36 7.45,8.91 L8,8.64 L6.93,4 L6.6,4 Z" id="Shape"></path>
                </g>
            </g>
        </g>
    </g>
</svg>