<?xml version="1.0" encoding="UTF-8"?>
<svg width="18px" height="18px" viewBox="0 0 18 18" version="1.1" xmlns="http://www.w3.org/2000/svg" xmlns:xlink="http://www.w3.org/1999/xlink">
    <!-- Generator: Sketch 54.1 (76490) - https://sketchapp.com -->
    <title>Path</title>
    <desc>Created with Sketch.</desc>
    <g id="Page-1" stroke="none" stroke-width="1" fill="none" fill-rule="evenodd">
        <g id="Artboard" transform="translate(-1538.000000, -537.000000)" fill="#000000" fill-rule="nonzero">
            <g id="refresh-outline" transform="translate(1535.000000, 534.000000)">
                <path d="M20.3,13.43 C19.775525,13.2665367 19.2173923,13.5567657 19.05,14.08 C18.080433,17.0445016 15.2988126,19.0365791 12.18,19 C8.26638853,19.0444845 5.05487204,15.9134796 5,12 C5.05487204,8.08652039 8.26638853,4.95551545 12.18,5 C13.8775755,4.99589997 15.5229148,5.58680676 16.83,6.67 L14.66,6.31 C14.3973278,6.2667794 14.1282638,6.33007515 13.9124081,6.48586667 C13.6965524,6.64165819 13.5517227,6.87708574 13.51,7.14 C13.4667794,7.40267217 13.5300752,7.67173616 13.6858667,7.88759188 C13.8416582,8.1034476 14.0770857,8.24827734 14.34,8.29 L18.58,8.99 L18.75,8.99 C18.8659548,8.9898636 18.9810025,8.96956107 19.09,8.93 C19.1266309,8.91609515 19.1604929,8.89577796 19.19,8.87 C19.2617,8.84333894 19.329088,8.80627552 19.39,8.76 L19.48,8.65 C19.48,8.6 19.57,8.56 19.61,8.5 C19.65,8.44 19.61,8.4 19.66,8.36 C19.6876324,8.30176179 19.7110265,8.24160559 19.73,8.18 L20.48,4.18 C20.5478805,3.82273441 20.4200057,3.4563936 20.1445448,3.2189746 C19.869084,2.9815556 19.4878861,2.90912801 19.1445448,3.0289746 C18.8012035,3.14882119 18.5478805,3.44273441 18.48,3.8 L18.21,5.25 C16.5359894,3.79924109 14.3951778,3.00043076 12.18,3 C7.16186233,2.95558192 3.05494995,6.9819666 3,12 C3.05494995,17.0180334 7.16186233,21.0444181 12.18,21 C16.1897527,21.0616105 19.7692635,18.4967002 21,14.68 C21.076633,14.4213454 21.0455121,14.1427009 20.9137025,13.9073266 C20.7818929,13.6719523 20.5605771,13.4998169 20.3,13.43 Z" id="Path"></path>
            </g>
        </g>
    </g>
</svg>