<?xml version="1.0" encoding="UTF-8"?>
<svg width="19px" height="18px" viewBox="0 0 19 18" version="1.1" xmlns="http://www.w3.org/2000/svg" xmlns:xlink="http://www.w3.org/1999/xlink">
    <!-- Generator: Sketch 54.1 (76490) - https://sketchapp.com -->
    <title>Shape</title>
    <desc>Created with Sketch.</desc>
    <g id="Page-1" stroke="none" stroke-width="1" fill="none" fill-rule="evenodd">
        <g id="Artboard" transform="translate(-559.000000, -692.000000)" fill="#000000" fill-rule="nonzero">
            <g id="Group" transform="translate(114.000000, 646.000000)">
                <g id="navigation-2-outline" transform="translate(443.000000, 42.000000)">
                    <path d="M13.67,22 L13.61,22 C13.1574387,21.9727227 12.7798552,21.6443893 12.69,21.2 L11,13 L2.8,11.31 C2.35473463,11.2215673 2.02490048,10.8443009 1.99672926,10.3912137 C1.96855804,9.93812657 2.24911852,9.52290813 2.68,9.38 L18.68,4.05 C19.0469877,3.89846804 19.4688624,3.97840306 19.7549797,4.25368255 C20.0410969,4.52896203 20.1372549,4.94743729 20,5.32 L14.67,21.32 C14.5270061,21.7453709 14.1181524,22.0233915 13.67,22 Z M6.87,10.1 L12.06,11.16 C12.4567283,11.2365281 12.7684244,11.5442787 12.85,11.94 L13.9,17.13 L17.42,6.58 L6.87,10.1 Z" id="Shape"></path>
                </g>
            </g>
        </g>
    </g>
</svg>